<svg width="32" height="32" viewBox="0 0 32 32" fill="none" xmlns="http://www.w3.org/2000/svg">
<path fill-rule="evenodd" clip-rule="evenodd" d="M13 16C13 16.1989 13.079 16.3897 13.2197 16.5303C13.3603 16.671 13.5511 16.75 13.75 16.75H22.4395L19.219 19.969C19.0782 20.1098 18.9991 20.3008 18.9991 20.5C18.9991 20.6992 19.0782 20.8902 19.219 21.031C19.3598 21.1718 19.5508 21.2509 19.75 21.2509C19.9492 21.2509 20.1402 21.1718 20.281 21.031L24.781 16.531C24.8508 16.4613 24.9063 16.3786 24.9441 16.2874C24.9819 16.1963 25.0013 16.0987 25.0013 16C25.0013 15.9013 24.9819 15.8037 24.9441 15.7125C24.9063 15.6214 24.8508 15.5387 24.781 15.469L20.281 10.969C20.1402 10.8282 19.9492 10.7491 19.75 10.7491C19.5508 10.7491 19.3598 10.8282 19.219 10.969C19.0782 11.1098 18.9991 11.3008 18.9991 11.5C18.9991 11.6992 19.0782 11.8902 19.219 12.031L22.4395 15.25H13.75C13.5511 15.25 13.3603 15.329 13.2197 15.4697C13.079 15.6103 13 15.8011 13 16ZM9.25 26.5C9.05109 26.5 8.86032 26.421 8.71967 26.2803C8.57902 26.1397 8.5 25.9489 8.5 25.75V6.25C8.5 6.05109 8.57902 5.86032 8.71967 5.71967C8.86032 5.57902 9.05109 5.5 9.25 5.5C9.44891 5.5 9.63968 5.57902 9.78033 5.71967C9.92098 5.86032 10 6.05109 10 6.25V25.75C10 25.9489 9.92098 26.1397 9.78033 26.2803C9.63968 26.421 9.44891 26.5 9.25 26.5Z" fill="white"/>
</svg>
