<svg width="32" height="33" viewBox="0 0 32 33" fill="none" xmlns="http://www.w3.org/2000/svg">
<path d="M16 29.0001C16.7956 29.0001 17.5587 28.6708 18.1213 28.0848C18.6839 27.4987 19 26.7039 19 25.8751H13C13 26.7039 13.3161 27.4987 13.8787 28.0848C14.4413 28.6708 15.2044 29.0001 16 29.0001ZM17.4925 5.71724C17.5134 5.49998 17.4904 5.28056 17.4249 5.07314C17.3595 4.86571 17.253 4.67488 17.1124 4.51296C16.9717 4.35103 16.8001 4.22161 16.6085 4.13303C16.4169 4.04445 16.2096 3.99869 16 3.99869C15.7904 3.99869 15.5831 4.04445 15.3915 4.13303C15.1999 4.22161 15.0283 4.35103 14.8876 4.51296C14.747 4.67488 14.6405 4.86571 14.5751 5.07314C14.5096 5.28056 14.4866 5.49998 14.5075 5.71724C12.8121 6.07646 11.2879 7.03499 10.1931 8.43053C9.09836 9.82606 8.50022 11.5728 8.5 13.3751C8.5 15.0907 7.75 22.7501 5.5 24.3126H26.5C24.25 22.7501 23.5 15.0907 23.5 13.3751C23.5 9.5938 20.92 6.43755 17.4925 5.71724Z" fill="white"/>
</svg>
