<svg width="24" height="24" viewBox="0 0 24 24" fill="none" xmlns="http://www.w3.org/2000/svg">
<path d="M11.6667 0C5.22667 0 0 5.22667 0 11.6667C0 18.1067 5.22667 23.3333 11.6667 23.3333C18.1067 23.3333 23.3333 18.1067 23.3333 11.6667C23.3333 5.22667 18.1067 0 11.6667 0ZM11.6667 3.5C13.6033 3.5 15.1667 5.06333 15.1667 7C15.1667 8.93667 13.6033 10.5 11.6667 10.5C9.73 10.5 8.16667 8.93667 8.16667 7C8.16667 5.06333 9.73 3.5 11.6667 3.5ZM11.6667 20.0667C8.75 20.0667 6.17167 18.5733 4.66667 16.31C4.70167 13.9883 9.33333 12.7167 11.6667 12.7167C13.9883 12.7167 18.6317 13.9883 18.6667 16.31C17.1617 18.5733 14.5833 20.0667 11.6667 20.0667Z" fill="white"/>
</svg>
